<svg id="Layer_3" enable-background="new 0 0 64 64" height="512" viewBox="0 0 64 64" width="512" xmlns="http://www.w3.org/2000/svg"><path d="m62 13h-8-9v-1c0-.552-.447-1-1-1h-7v-5c0-2.757-2.243-5-5-5s-5 2.243-5 5v5h-7c-.553 0-1 .448-1 1v1h-9-8c-.553 0-1 .448-1 1v2c0 1.654 1.346 3 3 3h5.667l3.733 2.8c.173.13.383.2.6.2h4.697l2.303 1.535v9.465c0 .552.447 1 1 1h3v27h-2v2h20v-2h-2v-27h1c.553 0 1-.448 1-1v-9.465l2.303-1.535h4.697c.217 0 .427-.07.6-.2l3.733-2.8h5.667c1.654 0 3-1.346 3-3v-2c0-.552-.447-1-1-1zm-59 3v-1h6v2h-5c-.552 0-1-.449-1-1zm20 16v-9c0-.334-.167-.646-.445-.832l-3-2c-.164-.109-.358-.168-.555-.168h-4.667l-3.333-2.5v-2.5h8.539c2.077 2.506 5.193 4 8.461 4h7v16.129l-4-9.333v-4.796h-2v13h2v-3.128l4.081 9.522c.157.368.519.606.919.606h3v7.057l-12-8.571v-18.486h-2v11zm12 15.658v13.342h-4v-16.2zm-8-5.715 2 1.429v17.628h-2zm10 19.057v-11.914l2 1.429v10.485zm16-43.5-3.333 2.5h-4.667c-.197 0-.391.059-.555.168l-3 2c-.278.186-.445.498-.445.832v9h-1c-.553 0-1 .448-1 1v6h-2v-24h-2v2h-7c-2.714 0-5.301-1.258-7-3.364v-.636h7c.553 0 1-.448 1-1v-6c0-1.654 1.346-3 3-3s3 1.346 3 3v6c0 .552.447 1 1 1h7v1c0 .552.447 1 1 1h9zm8-1.5c0 .551-.448 1-1 1h-5v-2h6z"/></svg>