<?xml version="1.0" encoding="UTF-8" standalone="no"?>
<svg
   xmlns:dc="http://purl.org/dc/elements/1.1/"
   xmlns:cc="http://creativecommons.org/ns#"
   xmlns:rdf="http://www.w3.org/1999/02/22-rdf-syntax-ns#"
   xmlns:svg="http://www.w3.org/2000/svg"
   xmlns="http://www.w3.org/2000/svg"
   xmlns:sodipodi="http://sodipodi.sourceforge.net/DTD/sodipodi-0.dtd"
   xmlns:inkscape="http://www.inkscape.org/namespaces/inkscape"
   inkscape:version="1.0 (4035a4fb49, 2020-05-01)"
   sodipodi:docname="social.svg"
   xml:space="preserve"
   style="enable-background:new 0 0 512 512;"
   viewBox="0 0 512 512"
   y="0px"
   x="0px"
   id="Capa_1"
   version="1.1"><metadata
   id="metadata109"><rdf:RDF><cc:Work
       rdf:about=""><dc:format>image/svg+xml</dc:format><dc:type
         rdf:resource="http://purl.org/dc/dcmitype/StillImage" /><dc:title></dc:title></cc:Work></rdf:RDF></metadata><defs
   id="defs107" /><sodipodi:namedview
   inkscape:current-layer="Capa_1"
   inkscape:window-maximized="1"
   inkscape:window-y="-11"
   inkscape:window-x="-11"
   inkscape:cy="323.10012"
   inkscape:cx="56.066724"
   inkscape:zoom="0.78125"
   showgrid="false"
   id="namedview105"
   inkscape:window-height="986"
   inkscape:window-width="1920"
   inkscape:pageshadow="2"
   inkscape:pageopacity="0"
   guidetolerance="10"
   gridtolerance="10"
   objecttolerance="10"
   borderopacity="1"
   bordercolor="#666666"
   pagecolor="#ffffff" />
<g
   style="stroke-width:2.59335"
   transform="matrix(0.38560137,0,0,0.38560137,157.28593,171.28605)"
   id="g66">
	<g
   style="stroke-width:2.59335"
   id="g64">
		<path
   style="stroke-width:2.59335"
   id="path62"
   d="m 255.999,0 c -74.443,0 -135,60.557 -135,135 0,74.443 60.557,135 135,135 74.443,0 135,-60.557 135,-135 0,-74.443 -60.557,-135 -135,-135 z" />
	</g>
</g>
<g
   style="stroke-width:2.59335"
   transform="matrix(0.38560137,0,0,0.38560137,157.28574,157.28605)"
   id="g72">
	<g
   style="stroke-width:2.59335"
   id="g70">
		<path
   style="stroke-width:2.59335"
   id="path68"
   d="M 478.48,398.68 C 438.124,338.138 370.579,302 297.835,302 h -83.672 c -72.744,0 -140.288,36.138 -180.644,96.68 l -2.52,3.779 V 512 h 450 H 481 V 402.459 Z" />
	</g>
</g>
<g
   id="g74">
</g>
<g
   id="g76">
</g>
<g
   id="g78">
</g>
<g
   id="g80">
</g>
<g
   id="g82">
</g>
<g
   id="g84">
</g>
<g
   id="g86">
</g>
<g
   id="g88">
</g>
<g
   id="g90">
</g>
<g
   id="g92">
</g>
<g
   id="g94">
</g>
<g
   id="g96">
</g>
<g
   id="g98">
</g>
<g
   id="g100">
</g>
<g
   id="g102">
</g>
<g
   style="stroke-width:3.11868"
   transform="matrix(0.32064827,0,0,0.32064827,173.91332,47.790273)"
   id="g182"><g
     style="stroke-width:3.11868"
     id="g180"><path
       style="stroke-width:3.11868"
       d="M 506.632,154.864 C 440.902,84.341 351.895,45.501 255.997,45.5 160.107,45.501 71.1,84.341 5.369,154.864 c -7.53,8.08 -7.085,20.736 0.995,28.267 8.081,7.53 20.736,7.086 28.267,-0.995 58.08,-62.316 136.696,-96.635 221.373,-96.636 84.67,0.001 163.286,34.32 221.366,96.636 3.939,4.226 9.28,6.364 14.635,6.364 4.883,0 9.778,-1.778 13.632,-5.369 8.08,-7.532 8.526,-20.187 0.995,-28.267 z"
       id="path178" /></g></g><g
   style="stroke-width:3.11868"
   transform="matrix(0.32064827,0,0,0.32064827,173.91408,47.790273)"
   id="g188"><g
     style="stroke-width:3.11868"
     id="g186"><path
       style="stroke-width:3.11868"
       d="m 433.194,237.458 c -48.587,-48.954 -111.516,-75.913 -177.196,-75.911 -65.695,0.001 -128.625,26.961 -177.197,75.913 -7.78,7.841 -7.731,20.504 0.11,28.284 7.841,7.78 20.504,7.731 28.284,-0.11 41.005,-41.326 93.851,-64.086 148.803,-64.087 54.938,-0.002 107.784,22.759 148.804,64.089 3.91,3.939 9.052,5.911 14.196,5.911 5.092,0 10.188,-1.934 14.09,-5.805 7.839,-7.781 7.887,-20.444 0.106,-28.284 z"
       id="path184" /></g></g><g
   style="stroke-width:3.11868"
   transform="matrix(0.32064827,0,0,0.32064827,174.21002,47.790273)"
   id="g194"><g
     style="stroke-width:3.11868"
     id="g192"><path
       style="stroke-width:3.11868"
       d="M 353.151,320.292 C 327.131,294.513 289.834,278.5 255.812,278.5 c -0.004,0 -0.011,0 -0.015,0 h -1.441 c -0.006,0 -0.009,0 -0.015,0 -34.023,0 -71.323,16.014 -97.342,41.792 -7.846,7.774 -7.905,20.437 -0.131,28.284 3.911,3.947 9.059,5.924 14.208,5.924 5.087,0 10.176,-1.929 14.075,-5.792 18.523,-18.352 45.68,-30.208 69.192,-30.208 0.003,0 0.007,0 0.01,0 h 1.447 c 0.004,0 0.005,0 0.009,0 23.509,0 50.668,11.857 69.189,30.208 7.846,7.773 20.511,7.717 28.284,-0.132 7.775,-7.846 7.716,-20.51 -0.131,-28.284 z"
       id="path190" /></g></g></svg>
